<svg width="1680" height="1200" viewBox="0 0 1680 1200" fill="none" xmlns="http://www.w3.org/2000/svg">
<g id="HOME" clip-path="url(#clip0_201_8)">
<rect width="1680" height="1200" fill="#3F4652"/>
<g id="Group 123">
<g id="Rectangle 109" filter="url(#filter0_n_201_8)">
<path d="M0.00195312 0H1680V1200H0.00195312V0Z" fill="#2A3648"/>
</g>
<g id="Group 88" opacity="0.05">
<g id="Group 87">
<g id="Group 86">
<g id="Group 84">
<g id="Group 83">
<g id="Group 81">
<g id="Group 79">
<line id="Line 76" y1="39.5" x2="1680" y2="39.5" stroke="white"/>
<line id="Line 77" y1="79.5" x2="1680" y2="79.5" stroke="white"/>
<line id="Line 78" y1="119.5" x2="1680" y2="119.5" stroke="white"/>
<line id="Line 79" y1="159.5" x2="1680" y2="159.5" stroke="white"/>
</g>
<g id="Group 80">
<line id="Line 76_2" x1="0.00195312" y1="199.5" x2="1680" y2="199.5" stroke="white"/>
<line id="Line 77_2" x1="0.00195312" y1="239.5" x2="1680" y2="239.5" stroke="white"/>
<line id="Line 78_2" x1="0.00195312" y1="279.5" x2="1680" y2="279.5" stroke="white"/>
<line id="Line 79_2" x1="0.00195312" y1="319.5" x2="1680" y2="319.5" stroke="white"/>
</g>
</g>
<g id="Group 82">
<g id="Group 79_2">
<line id="Line 76_3" x1="0.00195312" y1="359.5" x2="1680" y2="359.5" stroke="white"/>
<line id="Line 77_3" x1="0.00195312" y1="399.5" x2="1680" y2="399.5" stroke="white"/>
<line id="Line 78_3" x1="0.00195312" y1="439.5" x2="1680" y2="439.5" stroke="white"/>
<line id="Line 79_3" x1="0.00195312" y1="479.5" x2="1680" y2="479.5" stroke="white"/>
</g>
<g id="Group 80_2">
<line id="Line 76_4" x1="0.00390625" y1="519.5" x2="1680" y2="519.5" stroke="white"/>
<line id="Line 77_4" x1="0.00390625" y1="559.5" x2="1680" y2="559.5" stroke="white"/>
<line id="Line 78_4" x1="0.00390625" y1="599.5" x2="1680" y2="599.5" stroke="white"/>
<line id="Line 79_4" x1="0.00390625" y1="639.5" x2="1680" y2="639.5" stroke="white"/>
</g>
</g>
</g>
<g id="Group 81_2">
<g id="Group 79_3">
<line id="Line 76_5" x1="0.00195312" y1="679.5" x2="1680" y2="679.5" stroke="white"/>
<line id="Line 77_5" x1="0.00195312" y1="719.5" x2="1680" y2="719.5" stroke="white"/>
<line id="Line 78_5" x1="0.00195312" y1="759.5" x2="1680" y2="759.5" stroke="white"/>
<line id="Line 79_5" x1="0.00195312" y1="799.5" x2="1680" y2="799.5" stroke="white"/>
</g>
<g id="Group 80_3">
<line id="Line 76_6" x1="0.00390625" y1="839.5" x2="1680" y2="839.5" stroke="white"/>
<line id="Line 77_6" x1="0.00390625" y1="879.5" x2="1680" y2="879.5" stroke="white"/>
<line id="Line 78_6" x1="0.00390625" y1="919.5" x2="1680" y2="919.5" stroke="white"/>
<line id="Line 79_6" x1="0.00390625" y1="959.5" x2="1680" y2="959.5" stroke="white"/>
</g>
</g>
<g id="Group 79_4">
<line id="Line 76_7" x1="0.00390625" y1="999.5" x2="1680" y2="999.5" stroke="white"/>
<line id="Line 77_7" x1="0.00390625" y1="1039.5" x2="1680" y2="1039.5" stroke="white"/>
<line id="Line 78_7" x1="0.00390625" y1="1079.5" x2="1680" y2="1079.5" stroke="white"/>
<line id="Line 79_7" x1="0.00390625" y1="1119.5" x2="1680" y2="1119.5" stroke="white"/>
</g>
<line id="Line 76_8" x1="0.00585938" y1="1159.5" x2="1680.01" y2="1159.5" stroke="white"/>
</g>
<g id="Group 85">
<g id="Group 83_2">
<g id="Group 81_3">
<g id="Group 79_5">
<line id="Line 76_9" x1="39.502" y1="1200" x2="39.502" y2="0.00415039" stroke="white"/>
<line id="Line 77_8" x1="79.502" y1="1200" x2="79.502" y2="0.00415039" stroke="white"/>
<line id="Line 78_8" x1="119.502" y1="1200" x2="119.502" y2="0.00415039" stroke="white"/>
<line id="Line 79_8" x1="159.502" y1="1200" x2="159.502" y2="0.00415039" stroke="white"/>
</g>
<g id="Group 80_4">
<line id="Line 76_10" x1="199.502" y1="1200" x2="199.502" y2="0.00268555" stroke="white"/>
<line id="Line 77_9" x1="239.502" y1="1200" x2="239.502" y2="0.00268555" stroke="white"/>
<line id="Line 78_9" x1="279.502" y1="1200" x2="279.502" y2="0.00268555" stroke="white"/>
<line id="Line 79_9" x1="319.502" y1="1200" x2="319.502" y2="0.00268555" stroke="white"/>
</g>
</g>
<g id="Group 82_2">
<g id="Group 79_6">
<line id="Line 76_11" x1="359.502" y1="1200" x2="359.502" y2="0.00268555" stroke="white"/>
<line id="Line 77_10" x1="399.502" y1="1200" x2="399.502" y2="0.00268555" stroke="white"/>
<line id="Line 78_10" x1="439.502" y1="1200" x2="439.502" y2="0.00268555" stroke="white"/>
<line id="Line 79_10" x1="479.502" y1="1200" x2="479.502" y2="0.00268555" stroke="white"/>
</g>
<g id="Group 80_5">
<line id="Line 76_12" x1="519.502" y1="1200" x2="519.502" y2="0.00146484" stroke="white"/>
<line id="Line 77_11" x1="559.502" y1="1200" x2="559.502" y2="0.00146484" stroke="white"/>
<line id="Line 78_11" x1="599.502" y1="1200" x2="599.502" y2="0.00146484" stroke="white"/>
<line id="Line 79_11" x1="639.502" y1="1200" x2="639.502" y2="0.00146484" stroke="white"/>
</g>
</g>
</g>
<g id="Group 81_4">
<g id="Group 79_7">
<line id="Line 76_13" x1="679.502" y1="1200" x2="679.502" y2="0.00268555" stroke="white"/>
<line id="Line 77_12" x1="719.502" y1="1200" x2="719.502" y2="0.00268555" stroke="white"/>
<line id="Line 78_12" x1="759.502" y1="1200" x2="759.502" y2="0.00268555" stroke="white"/>
<line id="Line 79_12" x1="799.502" y1="1200" x2="799.502" y2="0.00268555" stroke="white"/>
</g>
<g id="Group 80_6">
<line id="Line 76_14" x1="839.502" y1="1200" x2="839.502" y2="0.00146484" stroke="white"/>
<line id="Line 77_13" x1="879.502" y1="1200" x2="879.502" y2="0.00146484" stroke="white"/>
<line id="Line 78_13" x1="919.502" y1="1200" x2="919.502" y2="0.00146484" stroke="white"/>
<line id="Line 79_13" x1="959.502" y1="1200" x2="959.502" y2="0.00146484" stroke="white"/>
</g>
</g>
<g id="Group 79_8">
<line id="Line 76_15" x1="999.502" y1="1200" x2="999.502" y2="0.00146484" stroke="white"/>
<line id="Line 77_14" x1="1039.5" y1="1200" x2="1039.5" y2="0.00146484" stroke="white"/>
<line id="Line 78_14" x1="1079.5" y1="1200" x2="1079.5" y2="0.00146484" stroke="white"/>
<line id="Line 79_14" x1="1119.5" y1="1200" x2="1119.5" y2="0.00146484" stroke="white"/>
</g>
<line id="Line 76_16" x1="1159.5" y1="1200" x2="1159.5" stroke="white"/>
</g>
</g>
</g>
<g id="Group 87_2">
<g id="Group 86_2">
<g id="Group 81_5">
<g id="Group 79_9">
<line id="Line 76_17" x1="1199.5" y1="1200" x2="1199.5" y2="0.00439453" stroke="white"/>
<line id="Line 77_15" x1="1239.5" y1="1200" x2="1239.5" y2="0.00439453" stroke="white"/>
<line id="Line 78_15" x1="1279.5" y1="1200" x2="1279.5" y2="0.00439453" stroke="white"/>
<line id="Line 79_15" x1="1319.5" y1="1200" x2="1319.5" y2="0.00439453" stroke="white"/>
</g>
<g id="Group 80_7">
<line id="Line 76_18" x1="1359.5" y1="1200" x2="1359.5" y2="0.00292969" stroke="white"/>
<line id="Line 77_16" x1="1399.5" y1="1200" x2="1399.5" y2="0.00292969" stroke="white"/>
<line id="Line 78_16" x1="1439.5" y1="1200" x2="1439.5" y2="0.00292969" stroke="white"/>
<line id="Line 79_16" x1="1479.5" y1="1200" x2="1479.5" y2="0.00292969" stroke="white"/>
</g>
</g>
<g id="Group 79_10">
<line id="Line 76_19" x1="1519.5" y1="1200" x2="1519.5" y2="0.00292969" stroke="white"/>
<line id="Line 77_17" x1="1559.5" y1="1200" x2="1559.5" y2="0.00292969" stroke="white"/>
<line id="Line 78_17" x1="1599.5" y1="1200" x2="1599.5" y2="0.00292969" stroke="white"/>
<line id="Line 79_17" x1="1639.5" y1="1200" x2="1639.5" y2="0.00292969" stroke="white"/>
</g>
</g>
</g>
</g>
</g>
<g id="Mask group">
<mask id="mask0_201_8" style="mask-type:alpha" maskUnits="userSpaceOnUse" x="0" y="0" width="1680" height="1449">
<rect id="Rectangle 168" width="1680" height="1449" fill="#D9D9D9"/>
</mask>
<g mask="url(#mask0_201_8)">
<g id="Vector 131" filter="url(#filter1_f_201_8)">
<path d="M74.0291 -24.2081C170.588 -413.585 508.04 363.9 745.167 172.828C862.49 78.2909 853.234 -221.064 984.524 -200.658C1097.59 -183.084 1068.75 114.402 1181.64 134.597C1264.15 149.357 1300.78 -35.1266 1378.76 9.61145C1487.87 72.2111 1427.2 241.382 1479.81 403.683C1578.74 708.838 1913.02 194.326 2037.37 475.733C2197.04 837.056 1379.87 646.063 1298.97 1066.84C1266.41 1236.19 1352.33 1428.73 1298.97 1584.6C1187.41 1910.51 1048.09 942.36 816.505 1014.08C620.36 1074.82 689.775 1562.57 489.853 1566.78C296.155 1570.86 318.389 1150.85 150.06 1000.67C-13.7441 854.526 -173.305 1151.69 -215.602 863.923C-258.685 570.807 121.079 690.637 178.633 403.683C208.079 256.865 38.4557 119.243 74.0291 -24.2081Z" stroke="#A2BBFF" stroke-width="30"/>
</g>
<g id="Vector 130" filter="url(#filter2_f_201_8)">
<path d="M139.24 56.9918C229.608 -287.993 545.422 400.853 767.345 231.564C877.145 147.805 868.483 -117.421 991.354 -99.3416C1097.18 -83.7711 1070.18 179.799 1175.83 197.692C1253.05 210.769 1287.33 47.318 1360.31 86.9557C1462.43 142.419 1405.64 292.303 1454.89 436.1C1547.47 706.466 1860.32 250.611 1976.7 499.936C2126.12 820.066 1361.35 650.847 1285.64 1023.65C1255.17 1173.7 1335.57 1344.28 1285.64 1482.38C1181.23 1771.14 1050.85 913.365 834.109 976.904C650.541 1030.72 715.505 1462.87 528.402 1466.6C347.124 1470.21 367.932 1098.09 210.396 965.028C57.095 835.544 -92.2348 1098.83 -131.82 843.87C-172.14 584.172 183.273 690.34 237.137 436.1C264.695 306.02 105.948 184.088 139.24 56.9918Z" stroke="#9AC993" stroke-width="30"/>
</g>
</g>
</g>
</g>
<defs>
<filter id="filter0_n_201_8" x="0.00195312" y="0" width="1680" height="1200" filterUnits="userSpaceOnUse" color-interpolation-filters="sRGB">
<feFlood flood-opacity="0" result="BackgroundImageFix"/>
<feBlend mode="normal" in="SourceGraphic" in2="BackgroundImageFix" result="shape"/>
<feTurbulence type="fractalNoise" baseFrequency="2 2" stitchTiles="stitch" numOctaves="3" result="noise" seed="8529" />
<feColorMatrix in="noise" type="luminanceToAlpha" result="alphaNoise" />
<feComponentTransfer in="alphaNoise" result="coloredNoise1">
<feFuncA type="discrete" tableValues="1 1 1 1 1 1 1 1 1 1 1 1 1 1 1 1 1 1 1 1 1 1 1 1 1 1 1 1 1 1 1 1 1 1 1 1 1 1 1 1 1 1 1 1 1 1 1 1 1 1 1 0 0 0 0 0 0 0 0 0 0 0 0 0 0 0 0 0 0 0 0 0 0 0 0 0 0 0 0 0 0 0 0 0 0 0 0 0 0 0 0 0 0 0 0 0 0 0 0 0 "/>
</feComponentTransfer>
<feComposite operator="in" in2="shape" in="coloredNoise1" result="noise1Clipped" />
<feComponentTransfer in="alphaNoise" result="coloredNoise2">
<feFuncA type="discrete" tableValues="0 0 0 0 0 0 0 0 0 0 0 0 0 0 0 0 0 0 0 0 0 0 0 0 0 0 0 0 0 0 0 0 0 0 0 0 0 0 0 0 0 0 0 0 0 0 0 0 0 1 1 1 1 1 1 1 1 1 1 1 1 1 1 1 1 1 1 1 1 1 1 1 1 1 1 1 1 1 1 1 1 1 1 1 1 1 1 1 1 1 1 1 1 1 1 1 1 1 1 1 "/>
</feComponentTransfer>
<feComposite operator="in" in2="shape" in="coloredNoise2" result="noise2Clipped" />
<feFlood flood-color="rgba(25, 33, 46, 0.25)" result="color1Flood" />
<feComposite operator="in" in2="noise1Clipped" in="color1Flood" result="color1" />
<feFlood flood-color="rgba(255, 255, 255, 0.1)" result="color2Flood" />
<feComposite operator="in" in2="noise2Clipped" in="color2Flood" result="color2" />
<feMerge result="effect1_noise_201_8">
<feMergeNode in="shape" />
<feMergeNode in="color1" />
<feMergeNode in="color2" />
</feMerge>
</filter>
<filter id="filter1_f_201_8" x="-303.995" y="-286.652" width="2447" height="2023.52" filterUnits="userSpaceOnUse" color-interpolation-filters="sRGB">
<feFlood flood-opacity="0" result="BackgroundImageFix"/>
<feBlend mode="normal" in="SourceGraphic" in2="BackgroundImageFix" result="shape"/>
<feGaussianBlur stdDeviation="35" result="effect1_foregroundBlur_201_8"/>
</filter>
<filter id="filter2_f_201_8" x="-219.994" y="-185.222" width="2301" height="1812.2" filterUnits="userSpaceOnUse" color-interpolation-filters="sRGB">
<feFlood flood-opacity="0" result="BackgroundImageFix"/>
<feBlend mode="normal" in="SourceGraphic" in2="BackgroundImageFix" result="shape"/>
<feGaussianBlur stdDeviation="35" result="effect1_foregroundBlur_201_8"/>
</filter>
<clipPath id="clip0_201_8">
<rect width="1680" height="1200" fill="white"/>
</clipPath>
</defs>
</svg>
